<mxfile host="app.diagrams.net" modified="2024-03-10T08:19:41.964Z" agent="Mozilla/5.0 (Windows NT 10.0; Win64; x64) AppleWebKit/537.36 (KHTML, like Gecko) Chrome/122.0.0.0 Safari/537.36" version="24.0.4" etag="d-frXdLS_gRTdqIO4loQ" type="github">
  <diagram name="第 1 页" id="rQLAKQaBXuNV4Hj5ioNb">
    <mxGraphModel>
      <root>
        <mxCell id="0" />
        <mxCell id="1" parent="0" />
      </root>
    </mxGraphModel>
  </diagram>
</mxfile>
